{
  "accessors": [
    {
      "bufferView": 2,
      "componentType": 5126,
      "count": 65532,
      "max": [
        15.446762084960938,
        8.31934928894043,
        43.9441032409668
      ],
      "min": [
        -15.59572982788086,
        -7.759825706481934,
        0.024015426635742188
      ],
      "type": "VEC3"
    },
    {
      "bufferView": 2,
      "byteOffset": 786384,
      "componentType": 5126,
      "count": 65532,
      "max": [
        1.0,
        1.0,
        1.0
      ],
      "min": [
        -1.0,
        -1.0,
        -1.0
      ],
      "type": "VEC3"
    },
    {
      "bufferView": 3,
      "componentType": 5126,
      "count": 65532,
      "max": [
        1.0,
        1.0,
        1.0,
        1.0
      ],
      "min": [
        -1.0,
        -1.0,
        -1.0,
        1.0
      ],
      "type": "VEC4"
    },
    {
      "bufferView": 1,
      "componentType": 5126,
      "count": 65532,
      "max": [
        0.998046875,
        0.9639261960983276
      ],
      "min": [
        0.0019531298894435167,
        0.0019531298894435167
      ],
      "type": "VEC2"
    },
    {
      "bufferView": 1,
      "byteOffset": 524256,
      "componentType": 5126,
      "count": 65532,
      "max": [
        0.998046875,
        0.9639261960983276
      ],
      "min": [
        0.0019531298894435167,
        0.0019531298894435167
      ],
      "type": "VEC2"
    },
    {
      "bufferView": 1,
      "byteOffset": 1048512,
      "componentType": 5126,
      "count": 65532,
      "max": [
        0.998046875,
        0.9639261960983276
      ],
      "min": [
        0.0019531298894435167,
        0.0019531298894435167
      ],
      "type": "VEC2"
    },
    {
      "bufferView": 1,
      "byteOffset": 1572768,
      "componentType": 5126,
      "count": 65532,
      "max": [
        0.998046875,
        0.9639261960983276
      ],
      "min": [
        0.0019531298894435167,
        0.0019531298894435167
      ],
      "type": "VEC2"
    },
    {
      "bufferView": 0,
      "componentType": 5125,
      "count": 72138,
      "type": "SCALAR"
    },
    {
      "bufferView": 2,
      "byteOffset": 1572768,
      "componentType": 5126,
      "count": 65532,
      "max": [
        15.623408317565918,
        8.502647399902344,
        50.87546157836914
      ],
      "min": [
        -15.594514846801758,
        -8.502654075622559,
        0.024015426635742188
      ],
      "type": "VEC3"
    },
    {
      "bufferView": 2,
      "byteOffset": 2359152,
      "componentType": 5126,
      "count": 65532,
      "max": [
        0.9999452829360962,
        1.0,
        0.9999974370002747
      ],
      "min": [
        -0.9999732971191406,
        -1.0,
        -1.0
      ],
      "type": "VEC3"
    },
    {
      "bufferView": 3,
      "byteOffset": 1048512,
      "componentType": 5126,
      "count": 65532,
      "max": [
        0.9999974370002747,
        1.0,
        1.0,
        1.0
      ],
      "min": [
        -0.9999973773956299,
        -1.0,
        -1.0,
        1.0
      ],
      "type": "VEC4"
    },
    {
      "bufferView": 1,
      "byteOffset": 2097024,
      "componentType": 5126,
      "count": 65532,
      "max": [
        0.9952436089515686,
        0.998046875
      ],
      "min": [
        0.0019531298894435167,
        0.0019531298894435167
      ],
      "type": "VEC2"
    },
    {
      "bufferView": 1,
      "byteOffset": 2621280,
      "componentType": 5126,
      "count": 65532,
      "max": [
        0.9952436089515686,
        0.998046875
      ],
      "min": [
        0.0019531298894435167,
        0.0019531298894435167
      ],
      "type": "VEC2"
    },
    {
      "bufferView": 1,
      "byteOffset": 3145536,
      "componentType": 5126,
      "count": 65532,
      "max": [
        0.9952436089515686,
        0.998046875
      ],
      "min": [
        0.0019531298894435167,
        0.0019531298894435167
      ],
      "type": "VEC2"
    },
    {
      "bufferView": 1,
      "byteOffset": 3669792,
      "componentType": 5126,
      "count": 65532,
      "max": [
        0.9952436089515686,
        0.998046875
      ],
      "min": [
        0.0019531298894435167,
        0.0019531298894435167
      ],
      "type": "VEC2"
    },
    {
      "bufferView": 0,
      "byteOffset": 288552,
      "componentType": 5125,
      "count": 80541,
      "type": "SCALAR"
    },
    {
      "bufferView": 2,
      "byteOffset": 3145536,
      "componentType": 5126,
      "count": 10174,
      "max": [
        -13.679515838623047,
        -6.618008613586426,
        1.918588638305664
      ],
      "min": [
        -15.595726013183594,
        -7.837584495544434,
        0.024015426635742188
      ],
      "type": "VEC3"
    },
    {
      "bufferView": 2,
      "byteOffset": 3267624,
      "componentType": 5126,
      "count": 10174,
      "max": [
        0.9998689889907837,
        0.9998071789741516,
        0.24739544093608856
      ],
      "min": [
        -0.9994904398918152,
        -0.9998676776885986,
        -0.9999472498893738
      ],
      "type": "VEC3"
    },
    {
      "bufferView": 3,
      "byteOffset": 2097024,
      "componentType": 5126,
      "count": 10174,
      "max": [
        0.9743068218231201,
        0.9999704360961914,
        0.999987781047821,
        1.0
      ],
      "min": [
        -0.9678868651390076,
        -0.9999417662620544,
        -0.9999876618385315,
        1.0
      ],
      "type": "VEC4"
    },
    {
      "bufferView": 1,
      "byteOffset": 4194048,
      "componentType": 5126,
      "count": 10174,
      "max": [
        0.9522096514701843,
        0.8941310048103333
      ],
      "min": [
        0.0019531298894435167,
        0.0019531298894435167
      ],
      "type": "VEC2"
    },
    {
      "bufferView": 1,
      "byteOffset": 4275440,
      "componentType": 5126,
      "count": 10174,
      "max": [
        0.9522096514701843,
        0.8941310048103333
      ],
      "min": [
        0.0019531298894435167,
        0.0019531298894435167
      ],
      "type": "VEC2"
    },
    {
      "bufferView": 1,
      "byteOffset": 4356832,
      "componentType": 5126,
      "count": 10174,
      "max": [
        0.9522096514701843,
        0.8941310048103333
      ],
      "min": [
        0.0019531298894435167,
        0.0019531298894435167
      ],
      "type": "VEC2"
    },
    {
      "bufferView": 1,
      "byteOffset": 4438224,
      "componentType": 5126,
      "count": 10174,
      "max": [
        0.9522096514701843,
        0.8941310048103333
      ],
      "min": [
        0.0019531298894435167,
        0.0019531298894435167
      ],
      "type": "VEC2"
    },
    {
      "bufferView": 0,
      "byteOffset": 610716,
      "componentType": 5125,
      "count": 10575,
      "type": "SCALAR"
    },
    {
      "bufferView": 2,
      "byteOffset": 3389712,
      "componentType": 5126,
      "count": 65532,
      "max": [
        26.140724182128906,
        7.837587356567383,
        1.6149578094482422
      ],
      "min": [
        -19.431827545166016,
        -7.837579727172852,
        -3.172880172729492
      ],
      "type": "VEC3"
    },
    {
      "bufferView": 2,
      "byteOffset": 4176096,
      "componentType": 5126,
      "count": 65532,
      "max": [
        0.9999760389328003,
        1.0,
        0.9999966025352478
      ],
      "min": [
        -0.9998339414596558,
        -1.0,
        -0.999981701374054
      ],
      "type": "VEC3"
    },
    {
      "bufferView": 3,
      "byteOffset": 2259808,
      "componentType": 5126,
      "count": 65532,
      "max": [
        0.9999762773513794,
        1.0,
        0.9999966621398926,
        1.0
      ],
      "min": [
        -0.9999933242797852,
        -1.0,
        -0.9999997019767761,
        1.0
      ],
      "type": "VEC4"
    },
    {
      "bufferView": 1,
      "byteOffset": 4519616,
      "componentType": 5126,
      "count": 65532,
      "max": [
        0.998046875,
        0.9642313718795776
      ],
      "min": [
        0.0019531298894435167,
        0.0019531298894435167
      ],
      "type": "VEC2"
    },
    {
      "bufferView": 1,
      "byteOffset": 5043872,
      "componentType": 5126,
      "count": 65532,
      "max": [
        0.998046875,
        0.9642313718795776
      ],
      "min": [
        0.0019531298894435167,
        0.0019531298894435167
      ],
      "type": "VEC2"
    },
    {
      "bufferView": 1,
      "byteOffset": 5568128,
      "componentType": 5126,
      "count": 65532,
      "max": [
        0.998046875,
        0.9642313718795776
      ],
      "min": [
        0.0019531298894435167,
        0.0019531298894435167
      ],
      "type": "VEC2"
    },
    {
      "bufferView": 1,
      "byteOffset": 6092384,
      "componentType": 5126,
      "count": 65532,
      "max": [
        0.998046875,
        0.9642313718795776
      ],
      "min": [
        0.0019531298894435167,
        0.0019531298894435167
      ],
      "type": "VEC2"
    },
    {
      "bufferView": 0,
      "byteOffset": 653016,
      "componentType": 5125,
      "count": 70506,
      "type": "SCALAR"
    },
    {
      "bufferView": 2,
      "byteOffset": 4962480,
      "componentType": 5126,
      "count": 65533,
      "max": [
        27.01830291748047,
        8.502649307250977,
        1.673553466796875
      ],
      "min": [
        -27.081039428710938,
        -8.502649307250977,
        -1.5528736114501953
      ],
      "type": "VEC3"
    },
    {
      "bufferView": 2,
      "byteOffset": 5748876,
      "componentType": 5126,
      "count": 65533,
      "max": [
        0.9999907612800598,
        1.0,
        0.9999756813049316
      ],
      "min": [
        -0.9999908208847046,
        -1.0,
        -0.9999756813049316
      ],
      "type": "VEC3"
    },
    {
      "bufferView": 3,
      "byteOffset": 3308320,
      "componentType": 5126,
      "count": 65533,
      "max": [
        1.0,
        1.0,
        1.0,
        1.0
      ],
      "min": [
        -0.9999999403953552,
        -1.0,
        -0.9999907612800598,
        1.0
      ],
      "type": "VEC4"
    },
    {
      "bufferView": 1,
      "byteOffset": 6616640,
      "componentType": 5126,
      "count": 65533,
      "max": [
        0.9948696494102478,
        0.998046875
      ],
      "min": [
        0.0019531298894435167,
        0.0019531298894435167
      ],
      "type": "VEC2"
    },
    {
      "bufferView": 1,
      "byteOffset": 7140904,
      "componentType": 5126,
      "count": 65533,
      "max": [
        0.9948696494102478,
        0.998046875
      ],
      "min": [
        0.0019531298894435167,
        0.0019531298894435167
      ],
      "type": "VEC2"
    },
    {
      "bufferView": 1,
      "byteOffset": 7665168,
      "componentType": 5126,
      "count": 65533,
      "max": [
        0.9948696494102478,
        0.998046875
      ],
      "min": [
        0.0019531298894435167,
        0.0019531298894435167
      ],
      "type": "VEC2"
    },
    {
      "bufferView": 1,
      "byteOffset": 8189432,
      "componentType": 5126,
      "count": 65533,
      "max": [
        0.9948696494102478,
        0.998046875
      ],
      "min": [
        0.0019531298894435167,
        0.0019531298894435167
      ],
      "type": "VEC2"
    },
    {
      "bufferView": 0,
      "byteOffset": 935040,
      "componentType": 5125,
      "count": 75135,
      "type": "SCALAR"
    },
    {
      "bufferView": 2,
      "byteOffset": 6535272,
      "componentType": 5126,
      "count": 15046,
      "max": [
        20.060951232910156,
        7.736215591430664,
        1.673553466796875
      ],
      "min": [
        0.5114097595214844,
        -6.047369003295898,
        -1.4941329956054688
      ],
      "type": "VEC3"
    },
    {
      "bufferView": 2,
      "byteOffset": 6715824,
      "componentType": 5126,
      "count": 15046,
      "max": [
        0.9999760389328003,
        1.0,
        0.9999966025352478
      ],
      "min": [
        -0.9999616742134094,
        -1.0,
        -0.9999762177467346
      ],
      "type": "VEC3"
    },
    {
      "bufferView": 3,
      "byteOffset": 4356848,
      "componentType": 5126,
      "count": 15046,
      "max": [
        0.999995768070221,
        1.0,
        0.999999463558197,
        1.0
      ],
      "min": [
        -0.9999762773513794,
        -1.0,
        -0.999999463558197,
        1.0
      ],
      "type": "VEC4"
    },
    {
      "bufferView": 1,
      "byteOffset": 8713696,
      "componentType": 5126,
      "count": 15046,
      "max": [
        0.9952436089515686,
        0.9253091216087341
      ],
      "min": [
        0.0019531298894435167,
        0.0019531298894435167
      ],
      "type": "VEC2"
    },
    {
      "bufferView": 1,
      "byteOffset": 8834064,
      "componentType": 5126,
      "count": 15046,
      "max": [
        0.9952436089515686,
        0.9253091216087341
      ],
      "min": [
        0.0019531298894435167,
        0.0019531298894435167
      ],
      "type": "VEC2"
    },
    {
      "bufferView": 1,
      "byteOffset": 8954432,
      "componentType": 5126,
      "count": 15046,
      "max": [
        0.9952436089515686,
        0.9253091216087341
      ],
      "min": [
        0.0019531298894435167,
        0.0019531298894435167
      ],
      "type": "VEC2"
    },
    {
      "bufferView": 1,
      "byteOffset": 9074800,
      "componentType": 5126,
      "count": 15046,
      "max": [
        0.9952436089515686,
        0.9253091216087341
      ],
      "min": [
        0.0019531298894435167,
        0.0019531298894435167
      ],
      "type": "VEC2"
    },
    {
      "bufferView": 0,
      "byteOffset": 1235580,
      "componentType": 5125,
      "count": 17613,
      "type": "SCALAR"
    }
  ],
  "asset": {
    "extras": {
      "author": "Francesco Coldesina (https://sketchfab.com/topfrank2013)",
      "license": "CC-BY-4.0 (http://creativecommons.org/licenses/by/4.0/)",
      "source": "https://sketchfab.com/3d-models/home-stair-pori-b8118aa2b15d4c3aa1526d767ba6701a",
      "title": "Home Stair Pori"
    },
    "generator": "Sketchfab-12.65.0",
    "version": "2.0"
  },
  "bufferViews": [
    {
      "buffer": 0,
      "byteLength": 1306032,
      "name": "floatBufferViews",
      "target": 34963
    },
    {
      "buffer": 0,
      "byteLength": 9195168,
      "byteOffset": 1306032,
      "byteStride": 8,
      "name": "floatBufferViews",
      "target": 34962
    },
    {
      "buffer": 0,
      "byteLength": 6896376,
      "byteOffset": 10501200,
      "byteStride": 12,
      "name": "floatBufferViews",
      "target": 34962
    },
    {
      "buffer": 0,
      "byteLength": 4597584,
      "byteOffset": 17397576,
      "byteStride": 16,
      "name": "floatBufferViews",
      "target": 34962
    }
  ],
  "buffers": [
    {
      "byteLength": 21995160,
      "uri": "scene.bin"
    }
  ],
  "extensionsRequired": [
    "KHR_materials_pbrSpecularGlossiness"
  ],
  "extensionsUsed": [
    "KHR_materials_pbrSpecularGlossiness"
  ],
  "images": [
    {
      "uri": "textures/Pori_diffuse.jpeg"
    },
    {
      "uri": "textures/Pori_specularGlossiness.png"
    },
    {
      "uri": "textures/Pori_normal.png"
    },
    {
      "uri": "textures/Pori_occlusion.png"
    }
  ],
  "materials": [
    {
      "doubleSided": true,
      "extensions": {
        "KHR_materials_pbrSpecularGlossiness": {
          "diffuseFactor": [
            1.0,
            1.0,
            1.0,
            1.0
          ],
          "diffuseTexture": {
            "index": 0
          },
          "glossinessFactor": 1.0,
          "specularFactor": [
            1.0,
            1.0,
            1.0
          ],
          "specularGlossinessTexture": {
            "index": 1
          }
        }
      },
      "name": "Pori",
      "normalTexture": {
        "index": 2
      },
      "occlusionTexture": {
        "index": 3
      }
    },
    {
      "doubleSided": true,
      "extensions": {
        "KHR_materials_pbrSpecularGlossiness": {
          "diffuseFactor": [
            1.0,
            1.0,
            1.0,
            1.0
          ],
          "diffuseTexture": {
            "index": 0
          },
          "glossinessFactor": 1.0,
          "specularFactor": [
            1.0,
            1.0,
            1.0
          ],
          "specularGlossinessTexture": {
            "index": 1
          }
        }
      },
      "name": "Pori_0",
      "normalTexture": {
        "index": 2
      },
      "occlusionTexture": {
        "index": 3
      }
    }
  ],
  "meshes": [
    {
      "name": "Pori-_Pori_0",
      "primitives": [
        {
          "attributes": {
            "NORMAL": 1,
            "POSITION": 0,
            "TANGENT": 2,
            "TEXCOORD_0": 3,
            "TEXCOORD_1": 4,
            "TEXCOORD_2": 5,
            "TEXCOORD_3": 6
          },
          "indices": 7,
          "material": 0,
          "mode": 4
        }
      ]
    },
    {
      "name": "Pori-_Pori_0",
      "primitives": [
        {
          "attributes": {
            "NORMAL": 9,
            "POSITION": 8,
            "TANGENT": 10,
            "TEXCOORD_0": 11,
            "TEXCOORD_1": 12,
            "TEXCOORD_2": 13,
            "TEXCOORD_3": 14
          },
          "indices": 15,
          "material": 0,
          "mode": 4
        }
      ]
    },
    {
      "name": "Pori-_Pori_0",
      "primitives": [
        {
          "attributes": {
            "NORMAL": 17,
            "POSITION": 16,
            "TANGENT": 18,
            "TEXCOORD_0": 19,
            "TEXCOORD_1": 20,
            "TEXCOORD_2": 21,
            "TEXCOORD_3": 22
          },
          "indices": 23,
          "material": 0,
          "mode": 4
        }
      ]
    },
    {
      "name": "Pori-Closed-_Pori_0",
      "primitives": [
        {
          "attributes": {
            "NORMAL": 25,
            "POSITION": 24,
            "TANGENT": 26,
            "TEXCOORD_0": 27,
            "TEXCOORD_1": 28,
            "TEXCOORD_2": 29,
            "TEXCOORD_3": 30
          },
          "indices": 31,
          "material": 1,
          "mode": 4
        }
      ]
    },
    {
      "name": "Pori-Closed-_Pori_0",
      "primitives": [
        {
          "attributes": {
            "NORMAL": 33,
            "POSITION": 32,
            "TANGENT": 34,
            "TEXCOORD_0": 35,
            "TEXCOORD_1": 36,
            "TEXCOORD_2": 37,
            "TEXCOORD_3": 38
          },
          "indices": 39,
          "material": 1,
          "mode": 4
        }
      ]
    },
    {
      "name": "Pori-Closed-_Pori_0",
      "primitives": [
        {
          "attributes": {
            "NORMAL": 41,
            "POSITION": 40,
            "TANGENT": 42,
            "TEXCOORD_0": 43,
            "TEXCOORD_1": 44,
            "TEXCOORD_2": 45,
            "TEXCOORD_3": 46
          },
          "indices": 47,
          "material": 1,
          "mode": 4
        }
      ]
    }
  ],
  "nodes": [
    {
      "children": [
        1
      ],
      "matrix": [
        1.0,
        0.0,
        0.0,
        0.0,
        0.0,
        2.220446049250313e-16,
        -1.0,
        0.0,
        0.0,
        1.0,
        2.220446049250313e-16,
        0.0,
        0.0,
        0.0,
        0.0,
        1.0
      ],
      "name": "Sketchfab_model"
    },
    {
      "children": [
        2
      ],
      "matrix": [
        1.0,
        0.0,
        0.0,
        0.0,
        0.0,
        0.0,
        1.0,
        0.0,
        0.0,
        -1.0,
        0.0,
        0.0,
        0.0,
        0.0,
        0.0,
        1.0
      ],
      "name": "9fc96ffbf4d64ccb8fb35dfce8cf80cf.fbx"
    },
    {
      "children": [
        3,
        7
      ],
      "name": "RootNode"
    },
    {
      "children": [
        4,
        5,
        6
      ],
      "matrix": [
        1.0,
        0.0,
        0.0,
        0.0,
        0.0,
        2.220446049250313e-16,
        -1.0,
        0.0,
        0.0,
        1.0,
        2.220446049250313e-16,
        0.0,
        0.0,
        0.0,
        0.0,
        1.0
      ],
      "name": "Pori-"
    },
    {
      "mesh": 0,
      "name": "Pori-_Pori_0"
    },
    {
      "mesh": 1,
      "name": "Pori-_Pori_0"
    },
    {
      "mesh": 2,
      "name": "Pori-_Pori_0"
    },
    {
      "children": [
        8,
        9,
        10
      ],
      "matrix": [
        1.0,
        0.0,
        0.0,
        0.0,
        0.0,
        2.220446049250313e-16,
        -1.0,
        0.0,
        0.0,
        1.0,
        2.220446049250313e-16,
        0.0,
        5.565631866455078,
        0.0,
        -29.198347091674805,
        1.0
      ],
      "name": "Pori-Closed-"
    },
    {
      "mesh": 3,
      "name": "Pori-Closed-_Pori_0"
    },
    {
      "mesh": 4,
      "name": "Pori-Closed-_Pori_0"
    },
    {
      "mesh": 5,
      "name": "Pori-Closed-_Pori_0"
    }
  ],
  "samplers": [
    {
      "magFilter": 9729,
      "minFilter": 9987,
      "wrapS": 10497,
      "wrapT": 10497
    }
  ],
  "scene": 0,
  "scenes": [
    {
      "name": "Sketchfab_Scene",
      "nodes": [
        0
      ]
    }
  ],
  "textures": [
    {
      "sampler": 0,
      "source": 0
    },
    {
      "sampler": 0,
      "source": 1
    },
    {
      "sampler": 0,
      "source": 2
    },
    {
      "sampler": 0,
      "source": 3
    }
  ]
}
