{
  "accessors": [
    {
      "bufferView": 2,
      "componentType": 5126,
      "count": 404,
      "max": [
        85.0,
        47.5,
        82.36347198486328
      ],
      "min": [
        -85.0,
        -48.4361572265625,
        0.030517578125
      ],
      "type": "VEC3"
    },
    {
      "bufferView": 2,
      "byteOffset": 4848,
      "componentType": 5126,
      "count": 404,
      "max": [
        1.0,
        0.9979357719421387,
        0.9950225949287415
      ],
      "min": [
        -1.0,
        -0.9967195987701416,
        -0.9954787492752075
      ],
      "type": "VEC3"
    },
    {
      "bufferView": 3,
      "componentType": 5126,
      "count": 404,
      "max": [
        0.9997023940086365,
        1.0,
        0.9995943903923035,
        1.0
      ],
      "min": [
        -0.9940282702445984,
        -0.9998397827148438,
        -0.9984151124954224,
        -1.0
      ],
      "type": "VEC4"
    },
    {
      "bufferView": 1,
      "componentType": 5126,
      "count": 404,
      "max": [
        0.9994999766349792,
        0.9885005950927734
      ],
      "min": [
        0.013181843794882298,
        0.000499998452141881
      ],
      "type": "VEC2"
    },
    {
      "bufferView": 0,
      "componentType": 5125,
      "count": 1836,
      "type": "SCALAR"
    },
    {
      "bufferView": 2,
      "byteOffset": 9696,
      "componentType": 5126,
      "count": 188,
      "max": [
        -86.17658996582031,
        47.5,
        69.92208862304688
      ],
      "min": [
        -105.21501159667969,
        -54.409210205078125,
        7.62939453125e-06
      ],
      "type": "VEC3"
    },
    {
      "bufferView": 2,
      "byteOffset": 11952,
      "componentType": 5126,
      "count": 188,
      "max": [
        0.9967195391654968,
        0.9967198371887207,
        0.9967195391654968
      ],
      "min": [
        -0.9969102144241333,
        -0.9966161847114563,
        -0.991131603717804
      ],
      "type": "VEC3"
    },
    {
      "bufferView": 3,
      "byteOffset": 6464,
      "componentType": 5126,
      "count": 188,
      "max": [
        0.9986103177070618,
        0.999689519405365,
        0.4600743353366852,
        1.0
      ],
      "min": [
        -0.999686062335968,
        -0.9911679625511169,
        -0.4150429368019104,
        1.0
      ],
      "type": "VEC4"
    },
    {
      "bufferView": 1,
      "byteOffset": 3232,
      "componentType": 5126,
      "count": 188,
      "max": [
        0.8377599716186523,
        0.999500036239624
      ],
      "min": [
        0.0005000000237487257,
        0.0005000000237487257
      ],
      "type": "VEC2"
    },
    {
      "bufferView": 0,
      "byteOffset": 7344,
      "componentType": 5125,
      "count": 990,
      "type": "SCALAR"
    },
    {
      "bufferView": 2,
      "byteOffset": 14208,
      "componentType": 5126,
      "count": 188,
      "max": [
        105.08528137207031,
        47.4892578125,
        69.91952514648438
      ],
      "min": [
        86.06004333496094,
        -54.409210205078125,
        0.03052520751953125
      ],
      "type": "VEC3"
    },
    {
      "bufferView": 2,
      "byteOffset": 16464,
      "componentType": 5126,
      "count": 188,
      "max": [
        0.9965845346450806,
        0.9967929720878601,
        0.9968010783195496
      ],
      "min": [
        -0.9967226386070251,
        -0.99683678150177,
        -0.9931233525276184
      ],
      "type": "VEC3"
    },
    {
      "bufferView": 3,
      "byteOffset": 9472,
      "componentType": 5126,
      "count": 188,
      "max": [
        0.9996830224990845,
        0.9964821934700012,
        0.3963868319988251,
        1.0
      ],
      "min": [
        -0.9978022575378418,
        -0.999689519405365,
        -0.40549880266189575,
        1.0
      ],
      "type": "VEC4"
    },
    {
      "bufferView": 1,
      "byteOffset": 4736,
      "componentType": 5126,
      "count": 188,
      "max": [
        0.839436948299408,
        0.999500036239624
      ],
      "min": [
        0.0005000000237487257,
        0.0005000000237487257
      ],
      "type": "VEC2"
    },
    {
      "bufferView": 0,
      "byteOffset": 11304,
      "componentType": 5125,
      "count": 990,
      "type": "SCALAR"
    },
    {
      "bufferView": 2,
      "byteOffset": 18720,
      "componentType": 5126,
      "count": 877,
      "max": [
        -0.36386871337890625,
        30.994483947753906,
        49.733642578125
      ],
      "min": [
        -85.240966796875,
        -52.95100784301758,
        21.990461349487305
      ],
      "type": "VEC3"
    },
    {
      "bufferView": 2,
      "byteOffset": 29244,
      "componentType": 5126,
      "count": 877,
      "max": [
        0.9999995231628418,
        1.0,
        0.9998897910118103
      ],
      "min": [
        -1.0,
        -0.9992353916168213,
        -0.9998447895050049
      ],
      "type": "VEC3"
    },
    {
      "bufferView": 3,
      "byteOffset": 12480,
      "componentType": 5126,
      "count": 877,
      "max": [
        0.9999997019767761,
        0.9956764578819275,
        0.9999957084655762,
        1.0
      ],
      "min": [
        -0.9972805976867676,
        -0.9961602687835693,
        -0.9999920129776001,
        1.0
      ],
      "type": "VEC4"
    },
    {
      "bufferView": 1,
      "byteOffset": 6240,
      "componentType": 5126,
      "count": 877,
      "max": [
        0.984711766242981,
        0.999500036239624
      ],
      "min": [
        0.0005000000237487257,
        0.0005000000237487257
      ],
      "type": "VEC2"
    },
    {
      "bufferView": 0,
      "byteOffset": 15264,
      "componentType": 5125,
      "count": 4752,
      "type": "SCALAR"
    },
    {
      "bufferView": 2,
      "byteOffset": 39768,
      "componentType": 5126,
      "count": 793,
      "max": [
        85.23294830322266,
        30.740402221679688,
        49.37579345703125
      ],
      "min": [
        -0.0717625617980957,
        -51.98945617675781,
        21.990461349487305
      ],
      "type": "VEC3"
    },
    {
      "bufferView": 2,
      "byteOffset": 49284,
      "componentType": 5126,
      "count": 793,
      "max": [
        0.9999993443489075,
        0.999999463558197,
        0.9999613165855408
      ],
      "min": [
        -0.9999999403953552,
        -0.9983758330345154,
        -0.9945827722549438
      ],
      "type": "VEC3"
    },
    {
      "bufferView": 3,
      "byteOffset": 26512,
      "componentType": 5126,
      "count": 793,
      "max": [
        0.9902969598770142,
        1.0,
        0.9999982118606567,
        1.0
      ],
      "min": [
        -0.9800289273262024,
        -0.994810938835144,
        -0.9999946355819702,
        1.0
      ],
      "type": "VEC4"
    },
    {
      "bufferView": 1,
      "byteOffset": 13256,
      "componentType": 5126,
      "count": 793,
      "max": [
        0.9726632237434387,
        0.999500036239624
      ],
      "min": [
        0.0005000000237487257,
        0.0005000000237487257
      ],
      "type": "VEC2"
    },
    {
      "bufferView": 0,
      "byteOffset": 34272,
      "componentType": 5125,
      "count": 4374,
      "type": "SCALAR"
    },
    {
      "bufferView": 2,
      "byteOffset": 58800,
      "componentType": 5126,
      "count": 753,
      "max": [
        -0.89056396484375,
        30.714908599853516,
        100.80484008789063
      ],
      "min": [
        -95.58487701416016,
        -0.9538609385490417,
        45.089111328125
      ],
      "type": "VEC3"
    },
    {
      "bufferView": 2,
      "byteOffset": 67836,
      "componentType": 5126,
      "count": 753,
      "max": [
        1.0,
        0.9996172785758972,
        0.9998854398727417
      ],
      "min": [
        -0.9995982050895691,
        -0.9987773895263672,
        -0.9970396161079407
      ],
      "type": "VEC3"
    },
    {
      "bufferView": 3,
      "byteOffset": 39200,
      "componentType": 5126,
      "count": 753,
      "max": [
        0.9887712001800537,
        0.9606781601905823,
        0.9997716546058655,
        1.0
      ],
      "min": [
        -0.9996321201324463,
        -0.9995591640472412,
        -0.9995003938674927,
        -1.0
      ],
      "type": "VEC4"
    },
    {
      "bufferView": 1,
      "byteOffset": 19600,
      "componentType": 5126,
      "count": 753,
      "max": [
        0.9940480589866638,
        0.999500036239624
      ],
      "min": [
        0.0005000000237487257,
        0.0005000000237487257
      ],
      "type": "VEC2"
    },
    {
      "bufferView": 0,
      "byteOffset": 51768,
      "componentType": 5125,
      "count": 3810,
      "type": "SCALAR"
    },
    {
      "bufferView": 2,
      "byteOffset": 76872,
      "componentType": 5126,
      "count": 736,
      "max": [
        95.17276763916016,
        30.628681182861328,
        99.17269134521484
      ],
      "min": [
        0.88140869140625,
        0.10069847851991653,
        45.089111328125
      ],
      "type": "VEC3"
    },
    {
      "bufferView": 2,
      "byteOffset": 85704,
      "componentType": 5126,
      "count": 736,
      "max": [
        0.999798059463501,
        0.9996113181114197,
        0.9985195994377136
      ],
      "min": [
        -1.0,
        -0.9996072053909302,
        -0.99751216173172
      ],
      "type": "VEC3"
    },
    {
      "bufferView": 3,
      "byteOffset": 51248,
      "componentType": 5126,
      "count": 736,
      "max": [
        0.9974356293678284,
        0.9941461086273193,
        0.9998427629470825,
        1.0
      ],
      "min": [
        -0.9996591806411743,
        -0.9993945956230164,
        -0.9995567202568054,
        -1.0
      ],
      "type": "VEC4"
    },
    {
      "bufferView": 1,
      "byteOffset": 25624,
      "componentType": 5126,
      "count": 736,
      "max": [
        0.9873701333999634,
        0.999500036239624
      ],
      "min": [
        0.011216145940124989,
        0.005120845045894384
      ],
      "type": "VEC2"
    },
    {
      "bufferView": 0,
      "byteOffset": 67008,
      "componentType": 5125,
      "count": 3810,
      "type": "SCALAR"
    }
  ],
  "asset": {
    "extras": {
      "author": "glezova (https://sketchfab.com/glezova)",
      "license": "CC-BY-4.0 (http://creativecommons.org/licenses/by/4.0/)",
      "source": "https://sketchfab.com/3d-models/old-sofa-3fe7ed15c42e48b8820792e8cef64f93",
      "title": "Old Sofa"
    },
    "generator": "Sketchfab-12.67.0",
    "version": "2.0"
  },
  "bufferViews": [
    {
      "buffer": 0,
      "byteLength": 82248,
      "name": "floatBufferViews",
      "target": 34963
    },
    {
      "buffer": 0,
      "byteLength": 31512,
      "byteOffset": 82248,
      "byteStride": 8,
      "name": "floatBufferViews",
      "target": 34962
    },
    {
      "buffer": 0,
      "byteLength": 94536,
      "byteOffset": 113760,
      "byteStride": 12,
      "name": "floatBufferViews",
      "target": 34962
    },
    {
      "buffer": 0,
      "byteLength": 63024,
      "byteOffset": 208296,
      "byteStride": 16,
      "name": "floatBufferViews",
      "target": 34962
    }
  ],
  "buffers": [
    {
      "byteLength": 271320,
      "uri": "scene.bin"
    }
  ],
  "images": [
    {
      "uri": "textures/material_baseColor.png"
    },
    {
      "uri": "textures/material_metallicRoughness.png"
    },
    {
      "uri": "textures/material_normal.png"
    },
    {
      "uri": "textures/material_1_baseColor.png"
    },
    {
      "uri": "textures/material_1_metallicRoughness.png"
    },
    {
      "uri": "textures/material_1_normal.png"
    },
    {
      "uri": "textures/material_2_baseColor.png"
    },
    {
      "uri": "textures/material_2_metallicRoughness.png"
    },
    {
      "uri": "textures/material_2_normal.png"
    },
    {
      "uri": "textures/material_3_baseColor.png"
    },
    {
      "uri": "textures/material_3_metallicRoughness.png"
    },
    {
      "uri": "textures/material_3_normal.png"
    },
    {
      "uri": "textures/material_4_baseColor.png"
    },
    {
      "uri": "textures/material_4_metallicRoughness.png"
    },
    {
      "uri": "textures/material_4_normal.png"
    },
    {
      "uri": "textures/material_5_baseColor.png"
    },
    {
      "uri": "textures/material_5_metallicRoughness.png"
    },
    {
      "uri": "textures/material_5_normal.png"
    },
    {
      "uri": "textures/material_6_baseColor.png"
    },
    {
      "uri": "textures/material_6_metallicRoughness.png"
    },
    {
      "uri": "textures/material_6_normal.png"
    }
  ],
  "materials": [
    {
      "doubleSided": true,
      "name": "material",
      "normalTexture": {
        "index": 2
      },
      "pbrMetallicRoughness": {
        "baseColorTexture": {
          "index": 0
        },
        "metallicFactor": 0.0,
        "metallicRoughnessTexture": {
          "index": 1
        }
      }
    },
    {
      "doubleSided": true,
      "name": "material_1",
      "normalTexture": {
        "index": 5
      },
      "pbrMetallicRoughness": {
        "baseColorTexture": {
          "index": 3
        },
        "metallicFactor": 0.0,
        "metallicRoughnessTexture": {
          "index": 4
        }
      }
    },
    {
      "doubleSided": true,
      "name": "material_2",
      "normalTexture": {
        "index": 8
      },
      "pbrMetallicRoughness": {
        "baseColorTexture": {
          "index": 6
        },
        "metallicFactor": 0.0,
        "metallicRoughnessTexture": {
          "index": 7
        }
      }
    },
    {
      "doubleSided": true,
      "name": "material_3",
      "normalTexture": {
        "index": 11
      },
      "pbrMetallicRoughness": {
        "baseColorTexture": {
          "index": 9
        },
        "metallicFactor": 0.0,
        "metallicRoughnessTexture": {
          "index": 10
        }
      }
    },
    {
      "doubleSided": true,
      "name": "material_4",
      "normalTexture": {
        "index": 14
      },
      "pbrMetallicRoughness": {
        "baseColorTexture": {
          "index": 12
        },
        "metallicFactor": 0.0,
        "metallicRoughnessTexture": {
          "index": 13
        }
      }
    },
    {
      "doubleSided": true,
      "name": "material_5",
      "normalTexture": {
        "index": 17
      },
      "pbrMetallicRoughness": {
        "baseColorTexture": {
          "index": 15
        },
        "metallicFactor": 0.0,
        "metallicRoughnessTexture": {
          "index": 16
        }
      }
    },
    {
      "doubleSided": true,
      "name": "material_6",
      "normalTexture": {
        "index": 20
      },
      "pbrMetallicRoughness": {
        "baseColorTexture": {
          "index": 18
        },
        "metallicFactor": 0.0,
        "metallicRoughnessTexture": {
          "index": 19
        }
      }
    }
  ],
  "meshes": [
    {
      "name": "Box001_7_0",
      "primitives": [
        {
          "attributes": {
            "NORMAL": 1,
            "POSITION": 0,
            "TANGENT": 2,
            "TEXCOORD_0": 3
          },
          "indices": 4,
          "material": 0,
          "mode": 4
        }
      ]
    },
    {
      "name": "Box001_5_0",
      "primitives": [
        {
          "attributes": {
            "NORMAL": 6,
            "POSITION": 5,
            "TANGENT": 7,
            "TEXCOORD_0": 8
          },
          "indices": 9,
          "material": 1,
          "mode": 4
        }
      ]
    },
    {
      "name": "Box001_6_0",
      "primitives": [
        {
          "attributes": {
            "NORMAL": 11,
            "POSITION": 10,
            "TANGENT": 12,
            "TEXCOORD_0": 13
          },
          "indices": 14,
          "material": 2,
          "mode": 4
        }
      ]
    },
    {
      "name": "Box001_4_0",
      "primitives": [
        {
          "attributes": {
            "NORMAL": 16,
            "POSITION": 15,
            "TANGENT": 17,
            "TEXCOORD_0": 18
          },
          "indices": 19,
          "material": 3,
          "mode": 4
        }
      ]
    },
    {
      "name": "Box001_3_0",
      "primitives": [
        {
          "attributes": {
            "NORMAL": 21,
            "POSITION": 20,
            "TANGENT": 22,
            "TEXCOORD_0": 23
          },
          "indices": 24,
          "material": 4,
          "mode": 4
        }
      ]
    },
    {
      "name": "Box001_1_0",
      "primitives": [
        {
          "attributes": {
            "NORMAL": 26,
            "POSITION": 25,
            "TANGENT": 27,
            "TEXCOORD_0": 28
          },
          "indices": 29,
          "material": 5,
          "mode": 4
        }
      ]
    },
    {
      "name": "Box001_2_0",
      "primitives": [
        {
          "attributes": {
            "NORMAL": 31,
            "POSITION": 30,
            "TANGENT": 32,
            "TEXCOORD_0": 33
          },
          "indices": 34,
          "material": 6,
          "mode": 4
        }
      ]
    }
  ],
  "nodes": [
    {
      "children": [
        1
      ],
      "matrix": [
        0.013189367949962616,
        0.0,
        0.0,
        0.0,
        0.0,
        2.928627995660319e-18,
        -0.013189367949962616,
        0.0,
        0.0,
        0.013189367949962616,
        2.928627995660319e-18,
        0.0,
        0.0,
        0.0,
        0.0,
        1.0
      ],
      "name": "Sketchfab_model"
    },
    {
      "children": [
        2
      ],
      "matrix": [
        1.0,
        0.0,
        0.0,
        0.0,
        0.0,
        0.0,
        1.0,
        0.0,
        0.0,
        -1.0,
        0.0,
        0.0,
        0.0,
        0.0,
        0.0,
        1.0
      ],
      "name": "b4b257c135ef42e2aaf841c11599782d.fbx"
    },
    {
      "children": [
        3
      ],
      "name": "RootNode"
    },
    {
      "children": [
        4,
        5,
        6,
        7,
        8,
        9,
        10
      ],
      "matrix": [
        1.0,
        0.0,
        0.0,
        0.0,
        0.0,
        2.220446049250313e-16,
        -1.0,
        0.0,
        0.0,
        1.0,
        2.220446049250313e-16,
        0.0,
        0.0,
        0.0,
        0.0,
        1.0
      ],
      "name": "Box001"
    },
    {
      "mesh": 0,
      "name": "Box001_7_0"
    },
    {
      "mesh": 1,
      "name": "Box001_5_0"
    },
    {
      "mesh": 2,
      "name": "Box001_6_0"
    },
    {
      "mesh": 3,
      "name": "Box001_4_0"
    },
    {
      "mesh": 4,
      "name": "Box001_3_0"
    },
    {
      "mesh": 5,
      "name": "Box001_1_0"
    },
    {
      "mesh": 6,
      "name": "Box001_2_0"
    }
  ],
  "samplers": [
    {
      "magFilter": 9729,
      "minFilter": 9987,
      "wrapS": 10497,
      "wrapT": 10497
    }
  ],
  "scene": 0,
  "scenes": [
    {
      "name": "Sketchfab_Scene",
      "nodes": [
        0
      ]
    }
  ],
  "textures": [
    {
      "sampler": 0,
      "source": 0
    },
    {
      "sampler": 0,
      "source": 1
    },
    {
      "sampler": 0,
      "source": 2
    },
    {
      "sampler": 0,
      "source": 3
    },
    {
      "sampler": 0,
      "source": 4
    },
    {
      "sampler": 0,
      "source": 5
    },
    {
      "sampler": 0,
      "source": 6
    },
    {
      "sampler": 0,
      "source": 7
    },
    {
      "sampler": 0,
      "source": 8
    },
    {
      "sampler": 0,
      "source": 9
    },
    {
      "sampler": 0,
      "source": 10
    },
    {
      "sampler": 0,
      "source": 11
    },
    {
      "sampler": 0,
      "source": 12
    },
    {
      "sampler": 0,
      "source": 13
    },
    {
      "sampler": 0,
      "source": 14
    },
    {
      "sampler": 0,
      "source": 15
    },
    {
      "sampler": 0,
      "source": 16
    },
    {
      "sampler": 0,
      "source": 17
    },
    {
      "sampler": 0,
      "source": 18
    },
    {
      "sampler": 0,
      "source": 19
    },
    {
      "sampler": 0,
      "source": 20
    }
  ]
}
