{
  "accessors": [
    {
      "bufferView": 2,
      "componentType": 5126,
      "count": 3996,
      "max": [
        5.321290016174316,
        4.763874053955078,
        6.939611911773682
      ],
      "min": [
        3.1331770420074463,
        2.5695409774780273,
        -0.36866700649261475
      ],
      "type": "VEC3"
    },
    {
      "bufferView": 2,
      "byteOffset": 47952,
      "componentType": 5126,
      "count": 3996,
      "max": [
        0.9999953508377075,
        0.9999978542327881,
        0.9999991655349731
      ],
      "min": [
        -0.9999858140945435,
        -0.9999971389770508,
        -0.9999985694885254
      ],
      "type": "VEC3"
    },
    {
      "bufferView": 3,
      "componentType": 5126,
      "count": 3996,
      "max": [
        0.9690946936607361,
        0.9999997019767761,
        0.9262489080429077,
        1.0
      ],
      "min": [
        -0.9928709864616394,
        -0.9989386796951294,
        -0.9999849796295166,
        -1.0
      ],
      "type": "VEC4"
    },
    {
      "bufferView": 1,
      "componentType": 5126,
      "count": 3996,
      "max": [
        0.9108139872550964,
        0.7642989754676819
      ],
      "min": [
        0.008163999766111374,
        0.012822000309824944
      ],
      "type": "VEC2"
    },
    {
      "bufferView": 0,
      "componentType": 5125,
      "count": 22920,
      "type": "SCALAR"
    }
  ],
  "asset": {
    "extras": {
      "author": "Nol22 (https://sketchfab.com/manoloescobedo22)",
      "license": "CC-BY-4.0 (http://creativecommons.org/licenses/by/4.0/)",
      "source": "https://sketchfab.com/3d-models/pilar-low-3ccaf3bddca34964b2abfa37be1c7b7f",
      "title": "Pilar_Low"
    },
    "generator": "Sketchfab-14.91.0",
    "version": "2.0"
  },
  "bufferViews": [
    {
      "buffer": 0,
      "byteLength": 91680,
      "name": "floatBufferViews",
      "target": 34963
    },
    {
      "buffer": 0,
      "byteLength": 31968,
      "byteOffset": 91680,
      "byteStride": 8,
      "name": "floatBufferViews",
      "target": 34962
    },
    {
      "buffer": 0,
      "byteLength": 95904,
      "byteOffset": 123648,
      "byteStride": 12,
      "name": "floatBufferViews",
      "target": 34962
    },
    {
      "buffer": 0,
      "byteLength": 63936,
      "byteOffset": 219552,
      "byteStride": 16,
      "name": "floatBufferViews",
      "target": 34962
    }
  ],
  "buffers": [
    {
      "byteLength": 283488,
      "uri": "scene.bin"
    }
  ],
  "extensionsUsed": [
    "KHR_materials_specular"
  ],
  "images": [
    {
      "uri": "textures/heala_baseColor.png"
    },
    {
      "uri": "textures/heala_metallicRoughness.png"
    },
    {
      "uri": "textures/heala_normal.png"
    }
  ],
  "materials": [
    {
      "doubleSided": true,
      "extensions": {
        "KHR_materials_specular": {
          "specularColorFactor": [
            1.0,
            1.0,
            1.0
          ],
          "specularFactor": 0.12647657592861233
        }
      },
      "name": "heala",
      "normalTexture": {
        "index": 2
      },
      "pbrMetallicRoughness": {
        "baseColorTexture": {
          "index": 0
        },
        "metallicFactor": 0.0,
        "metallicRoughnessTexture": {
          "index": 1
        }
      }
    }
  ],
  "meshes": [
    {
      "name": "Object_0",
      "primitives": [
        {
          "attributes": {
            "NORMAL": 1,
            "POSITION": 0,
            "TANGENT": 2,
            "TEXCOORD_0": 3
          },
          "indices": 4,
          "material": 0,
          "mode": 4
        }
      ]
    }
  ],
  "nodes": [
    {
      "children": [
        1
      ],
      "matrix": [
        1.0,
        0.0,
        0.0,
        0.0,
        0.0,
        2.220446049250313e-16,
        -1.0,
        0.0,
        0.0,
        1.0,
        2.220446049250313e-16,
        0.0,
        0.0,
        0.0,
        0.0,
        1.0
      ],
      "name": "Sketchfab_model"
    },
    {
      "children": [
        2
      ],
      "name": "pilar_L.obj.cleaner.materialmerger.gles"
    },
    {
      "mesh": 0,
      "name": "Object_2"
    }
  ],
  "samplers": [
    {
      "magFilter": 9729,
      "minFilter": 9987,
      "wrapS": 10497,
      "wrapT": 10497
    }
  ],
  "scene": 0,
  "scenes": [
    {
      "name": "Sketchfab_Scene",
      "nodes": [
        0
      ]
    }
  ],
  "textures": [
    {
      "sampler": 0,
      "source": 0
    },
    {
      "sampler": 0,
      "source": 1
    },
    {
      "sampler": 0,
      "source": 2
    }
  ]
}
