{
  "accessors": [
    {
      "bufferView": 2,
      "componentType": 5126,
      "count": 622,
      "max": [
        39.73446273803711,
        46.11519241333008,
        0.007282000035047531
      ],
      "min": [
        -35.9289665222168,
        -9.780835151672363,
        -70.9771499633789
      ],
      "type": "VEC3"
    },
    {
      "bufferView": 2,
      "byteOffset": 7464,
      "componentType": 5126,
      "count": 622,
      "max": [
        0.9994499087333679,
        0.9986811280250549,
        0.9999642968177795
      ],
      "min": [
        -0.9994499683380127,
        -0.9993039965629578,
        -0.9998076558113098
      ],
      "type": "VEC3"
    },
    {
      "bufferView": 3,
      "componentType": 5126,
      "count": 622,
      "max": [
        0.9944654107093811,
        0.9562419056892395,
        0.9331945776939392,
        1.0
      ],
      "min": [
        -0.999853789806366,
        -0.9691717028617859,
        -0.9952972531318665,
        -1.0
      ],
      "type": "VEC4"
    },
    {
      "bufferView": 1,
      "componentType": 5126,
      "count": 622,
      "max": [
        0.9904760122299194,
        0.9921879768371582
      ],
      "min": [
        0.0078119998797774315,
        0.007812023162841797
      ],
      "type": "VEC2"
    },
    {
      "bufferView": 1,
      "byteOffset": 4976,
      "componentType": 5126,
      "count": 622,
      "max": [
        0.9904760122299194,
        0.9921879768371582
      ],
      "min": [
        0.0078119998797774315,
        0.007812023162841797
      ],
      "type": "VEC2"
    },
    {
      "bufferView": 1,
      "byteOffset": 9952,
      "componentType": 5126,
      "count": 622,
      "max": [
        0.9904760122299194,
        0.9921879768371582
      ],
      "min": [
        0.0078119998797774315,
        0.007812023162841797
      ],
      "type": "VEC2"
    },
    {
      "bufferView": 1,
      "byteOffset": 14928,
      "componentType": 5126,
      "count": 622,
      "max": [
        0.9904760122299194,
        0.9921879768371582
      ],
      "min": [
        0.0078119998797774315,
        0.007812023162841797
      ],
      "type": "VEC2"
    },
    {
      "bufferView": 0,
      "componentType": 5125,
      "count": 2982,
      "type": "SCALAR"
    }
  ],
  "asset": {
    "extras": {
      "author": "bikravnis (https://sketchfab.com/bikravnis)",
      "license": "CC-BY-4.0 (http://creativecommons.org/licenses/by/4.0/)",
      "source": "https://sketchfab.com/3d-models/trash-bag-f0c68a0742904c0abaac94e8cd427023",
      "title": "Trash Bag"
    },
    "generator": "Sketchfab-16.8.0",
    "version": "2.0"
  },
  "bufferViews": [
    {
      "buffer": 0,
      "byteLength": 11928,
      "name": "floatBufferViews",
      "target": 34963
    },
    {
      "buffer": 0,
      "byteLength": 19904,
      "byteOffset": 11928,
      "byteStride": 8,
      "name": "floatBufferViews",
      "target": 34962
    },
    {
      "buffer": 0,
      "byteLength": 14928,
      "byteOffset": 31832,
      "byteStride": 12,
      "name": "floatBufferViews",
      "target": 34962
    },
    {
      "buffer": 0,
      "byteLength": 9952,
      "byteOffset": 46760,
      "byteStride": 16,
      "name": "floatBufferViews",
      "target": 34962
    }
  ],
  "buffers": [
    {
      "byteLength": 56712,
      "uri": "scene.bin"
    }
  ],
  "extensionsUsed": [
    "KHR_materials_specular"
  ],
  "images": [
    {
      "uri": "textures/Trash_Bag_baseColor.png"
    },
    {
      "uri": "textures/Trash_Bag_metallicRoughness.png"
    },
    {
      "uri": "textures/Trash_Bag_normal.png"
    }
  ],
  "materials": [
    {
      "doubleSided": true,
      "extensions": {
        "KHR_materials_specular": {
          "specularColorFactor": [
            1.0,
            1.0,
            1.0
          ],
          "specularFactor": 0.5048755377734246
        }
      },
      "name": "Trash_Bag",
      "normalTexture": {
        "index": 2
      },
      "pbrMetallicRoughness": {
        "baseColorTexture": {
          "index": 0
        },
        "metallicFactor": 0.0,
        "metallicRoughnessTexture": {
          "index": 1
        }
      }
    }
  ],
  "meshes": [
    {
      "name": "Object_0",
      "primitives": [
        {
          "attributes": {
            "NORMAL": 1,
            "POSITION": 0,
            "TANGENT": 2,
            "TEXCOORD_0": 3,
            "TEXCOORD_1": 4,
            "TEXCOORD_2": 5,
            "TEXCOORD_3": 6
          },
          "indices": 7,
          "material": 0,
          "mode": 4
        }
      ]
    }
  ],
  "nodes": [
    {
      "children": [
        1
      ],
      "matrix": [
        1.0,
        0.0,
        0.0,
        0.0,
        0.0,
        5.053215392444312e-16,
        -1.0,
        0.0,
        0.0,
        1.0,
        5.053215392444312e-16,
        0.0,
        0.0,
        0.0,
        0.0,
        1.0
      ],
      "name": "Sketchfab_model"
    },
    {
      "children": [
        2
      ],
      "name": "root"
    },
    {
      "children": [
        3
      ],
      "matrix": [
        1.0,
        0.0,
        0.0,
        0.0,
        0.0,
        2.220446049250313e-16,
        1.0,
        0.0,
        0.0,
        -1.0,
        2.220446049250313e-16,
        0.0,
        0.0,
        0.0,
        0.0,
        1.0
      ],
      "name": "GLTF_SceneRootNode"
    },
    {
      "children": [
        4
      ],
      "matrix": [
        1.0,
        0.0,
        0.0,
        0.0,
        0.0,
        -3.371747936409264e-07,
        0.999999999999943,
        0.0,
        0.0,
        -0.999999999999943,
        -3.371747936409264e-07,
        0.0,
        0.0,
        0.0,
        0.0,
        1.0
      ],
      "name": "Trash_Bag_0"
    },
    {
      "mesh": 0,
      "name": "Object_4"
    }
  ],
  "samplers": [
    {
      "magFilter": 9729,
      "minFilter": 9987,
      "wrapS": 10497,
      "wrapT": 10497
    }
  ],
  "scene": 0,
  "scenes": [
    {
      "name": "Sketchfab_Scene",
      "nodes": [
        0
      ]
    }
  ],
  "textures": [
    {
      "sampler": 0,
      "source": 0
    },
    {
      "sampler": 0,
      "source": 1
    },
    {
      "sampler": 0,
      "source": 2
    }
  ]
}
