{
  "accessors": [
    {
      "bufferView": 2,
      "componentType": 5126,
      "count": 6637,
      "max": [
        0.29628369212150574,
        0.8556039333343506,
        0.2962835729122162
      ],
      "min": [
        -0.29628369212150574,
        0.0,
        -0.2962838113307953
      ],
      "type": "VEC3"
    },
    {
      "bufferView": 2,
      "byteOffset": 79644,
      "componentType": 5126,
      "count": 6637,
      "max": [
        0.9999622106552124,
        1.0,
        0.9999973773956299
      ],
      "min": [
        -0.9999622106552124,
        -1.0,
        -0.99997878074646
      ],
      "type": "VEC3"
    },
    {
      "bufferView": 3,
      "componentType": 5126,
      "count": 6637,
      "max": [
        1.0,
        0.9999998211860657,
        1.0,
        1.0
      ],
      "min": [
        -1.0,
        -1.0,
        -1.0,
        -1.0
      ],
      "type": "VEC4"
    },
    {
      "bufferView": 1,
      "componentType": 5126,
      "count": 6637,
      "max": [
        0.9963338375091553,
        0.9975630044937134
      ],
      "min": [
        0.002437097253277898,
        0.02601391077041626
      ],
      "type": "VEC2"
    },
    {
      "bufferView": 1,
      "byteOffset": 53096,
      "componentType": 5126,
      "count": 6637,
      "max": [
        0.9963338375091553,
        0.9975630044937134
      ],
      "min": [
        0.002437097253277898,
        0.02601391077041626
      ],
      "type": "VEC2"
    },
    {
      "bufferView": 1,
      "byteOffset": 106192,
      "componentType": 5126,
      "count": 6637,
      "max": [
        0.9963338375091553,
        0.9975630044937134
      ],
      "min": [
        0.002437097253277898,
        0.02601391077041626
      ],
      "type": "VEC2"
    },
    {
      "bufferView": 1,
      "byteOffset": 159288,
      "componentType": 5126,
      "count": 6637,
      "max": [
        0.9963338375091553,
        0.9975630044937134
      ],
      "min": [
        0.002437097253277898,
        0.02601391077041626
      ],
      "type": "VEC2"
    },
    {
      "bufferView": 0,
      "componentType": 5125,
      "count": 27648,
      "type": "SCALAR"
    }
  ],
  "asset": {
    "extras": {
      "author": "TegnoGenial (https://sketchfab.com/TegnoGenial)",
      "license": "CC-BY-4.0 (http://creativecommons.org/licenses/by/4.0/)",
      "source": "https://sketchfab.com/3d-models/barrel-stove-a37eae54e2ee45b3b4e1a0acb2517d8a",
      "title": "Barrel Stove"
    },
    "generator": "Sketchfab-16.8.0",
    "version": "2.0"
  },
  "bufferViews": [
    {
      "buffer": 0,
      "byteLength": 110592,
      "name": "floatBufferViews",
      "target": 34963
    },
    {
      "buffer": 0,
      "byteLength": 212384,
      "byteOffset": 110592,
      "byteStride": 8,
      "name": "floatBufferViews",
      "target": 34962
    },
    {
      "buffer": 0,
      "byteLength": 159288,
      "byteOffset": 322976,
      "byteStride": 12,
      "name": "floatBufferViews",
      "target": 34962
    },
    {
      "buffer": 0,
      "byteLength": 106192,
      "byteOffset": 482264,
      "byteStride": 16,
      "name": "floatBufferViews",
      "target": 34962
    }
  ],
  "buffers": [
    {
      "byteLength": 588456,
      "uri": "scene.bin"
    }
  ],
  "images": [
    {
      "uri": "textures/barrel_stove_baseColor.jpeg"
    },
    {
      "uri": "textures/barrel_stove_metallicRoughness.png"
    },
    {
      "uri": "textures/barrel_stove_normal.jpeg"
    }
  ],
  "materials": [
    {
      "doubleSided": true,
      "name": "barrel_stove",
      "normalTexture": {
        "index": 2
      },
      "pbrMetallicRoughness": {
        "baseColorTexture": {
          "index": 0
        },
        "metallicRoughnessTexture": {
          "index": 1
        }
      }
    }
  ],
  "meshes": [
    {
      "name": "Object_0",
      "primitives": [
        {
          "attributes": {
            "NORMAL": 1,
            "POSITION": 0,
            "TANGENT": 2,
            "TEXCOORD_0": 3,
            "TEXCOORD_1": 4,
            "TEXCOORD_2": 5,
            "TEXCOORD_3": 6
          },
          "indices": 7,
          "material": 0,
          "mode": 4
        }
      ]
    }
  ],
  "nodes": [
    {
      "children": [
        1
      ],
      "matrix": [
        1.0,
        0.0,
        0.0,
        0.0,
        0.0,
        2.220446049250313e-16,
        -1.0,
        0.0,
        0.0,
        1.0,
        2.220446049250313e-16,
        0.0,
        0.0,
        0.0,
        0.0,
        1.0
      ],
      "name": "Sketchfab_model"
    },
    {
      "children": [
        2
      ],
      "name": "root"
    },
    {
      "children": [
        3
      ],
      "matrix": [
        1.0,
        0.0,
        0.0,
        0.0,
        0.0,
        2.220446049250313e-16,
        1.0,
        0.0,
        0.0,
        -1.0,
        2.220446049250313e-16,
        0.0,
        0.0,
        0.0,
        0.0,
        1.0
      ],
      "name": "GLTF_SceneRootNode"
    },
    {
      "children": [
        4
      ],
      "name": "barrel_stove_0"
    },
    {
      "mesh": 0,
      "name": "Object_4"
    }
  ],
  "samplers": [
    {
      "magFilter": 9729,
      "minFilter": 9987,
      "wrapS": 10497,
      "wrapT": 10497
    }
  ],
  "scene": 0,
  "scenes": [
    {
      "name": "Sketchfab_Scene",
      "nodes": [
        0
      ]
    }
  ],
  "textures": [
    {
      "sampler": 0,
      "source": 0
    },
    {
      "sampler": 0,
      "source": 1
    },
    {
      "sampler": 0,
      "source": 2
    }
  ]
}
